<?xml version="1.0" encoding="UTF-8"?>
<svg xmlns="http://www.w3.org/2000/svg" xmlns:xlink="http://www.w3.org/1999/xlink" fill-opacity="1" color-rendering="auto" color-interpolation="auto" stroke="black" text-rendering="auto" stroke-linecap="square" width="426" stroke-miterlimit="10" stroke-opacity="1" shape-rendering="auto" fill="black" stroke-dasharray="none" font-weight="normal" stroke-width="1" height="386" font-family="'Dialog'" font-style="normal" stroke-linejoin="miter" font-size="12" stroke-dashoffset="0" image-rendering="auto">
  <!--Generated by ySVG 2.5-->
  <defs id="genericDefs"/>
  <g>
    <defs id="defs1">
      <clipPath clipPathUnits="userSpaceOnUse" id="clipPath1">
        <path d="M0 0 L426 0 L426 386 L0 386 L0 0 Z"/>
      </clipPath>
      <clipPath clipPathUnits="userSpaceOnUse" id="clipPath2">
        <path d="M200 157 L626 157 L626 543 L200 543 L200 157 Z"/>
      </clipPath>
    </defs>
    <g fill="white" text-rendering="optimizeQuality" shape-rendering="geometricPrecision" transform="translate(-200,-157)" stroke="white">
      <rect x="200" width="426" height="386" y="157" clip-path="url(#clipPath2)" stroke="none"/>
    </g>
    <g text-rendering="optimizeQuality" stroke-miterlimit="1.45" shape-rendering="geometricPrecision" font-family="sans-serif" transform="matrix(1,0,0,1,-200,-157)" stroke-linecap="butt">
      <text x="262" xml:space="preserve" y="189.6016" clip-path="url(#clipPath2)" stroke="none">DNS Handler</text>
      <rect fill="none" x="256" width="149" height="104" y="172" clip-path="url(#clipPath2)"/>
      <text x="262" xml:space="preserve" y="367.6016" clip-path="url(#clipPath2)" stroke="none">Main Control Module</text>
      <rect fill="none" x="256" width="311" height="48" y="350" clip-path="url(#clipPath2)"/>
      <text x="424" xml:space="preserve" y="189.6016" clip-path="url(#clipPath2)" stroke="none">AS Handler</text>
      <rect fill="none" x="418" width="149" height="104" y="172" clip-path="url(#clipPath2)"/>
      <text x="289.0527" xml:space="preserve" y="218.5352" clip-path="url(#clipPath2)" stroke="none">Flow Classifier</text>
      <rect fill="none" x="262" width="138" height="30" y="199" clip-path="url(#clipPath2)"/>
      <text x="282.8682" xml:space="preserve" y="257.5352" clip-path="url(#clipPath2)" stroke="none">Metadata Engine</text>
      <rect fill="none" x="262" width="138" height="30" y="238" clip-path="url(#clipPath2)"/>
      <text x="262" xml:space="preserve" y="415.6016" clip-path="url(#clipPath2)" stroke="none">SDX Platform</text>
      <rect fill="none" x="256" width="311" height="48" y="398" clip-path="url(#clipPath2)"/>
      <text x="392.8701" xml:space="preserve" y="517.4551" clip-path="url(#clipPath2)" stroke="none">Switch</text>
      <path fill="none" d="M287.1002 497.92 L567 497.92 L535.9002 527.92 L256 527.92 Z" fill-rule="evenodd" clip-path="url(#clipPath2)"/>
      <text x="457.4805" xml:space="preserve" y="426.5352" clip-path="url(#clipPath2)" stroke="none">BGP Engine</text>
      <rect fill="none" x="421" width="138" height="30" y="407" clip-path="url(#clipPath2)"/>
      <path fill="none" d="M492.5 284 L492.5 342.0298" clip-path="url(#clipPath2)"/>
      <path d="M492.5 276 L487.5 288 L492.5 285 L497.5 288 Z" clip-path="url(#clipPath2)" stroke="none"/>
      <path d="M492.5 350.0298 L497.5 338.0298 L492.5 341.0298 L487.5 338.0298 Z" clip-path="url(#clipPath2)" stroke="none"/>
      <text x="440.8203" xml:space="preserve" y="317.5352" clip-path="url(#clipPath2)" stroke="none">Policies</text>
      <path fill="none" d="M256 374 L225 374 L220.625 373.375 L217.5 371.5 L215.625 368.375 L215 364 L215 224 L215.625 219.625 L217.5 216.5 L220.625 214.625 L225 214 L254 214" clip-path="url(#clipPath2)"/>
      <path d="M262 214 L250 209 L253 214 L250 219 Z" clip-path="url(#clipPath2)" stroke="none"/>
      <text x="240.3818" xml:space="preserve" y="308.3888" clip-path="url(#clipPath2)" stroke="none">DNS</text>
      <text x="221.6992" xml:space="preserve" y="322.5216" clip-path="url(#clipPath2)" stroke="none">Responses</text>
      <path fill="none" d="M331 276 L331 342.0107" clip-path="url(#clipPath2)"/>
      <path d="M331 268 L326 280 L331 277 L336 280 Z" clip-path="url(#clipPath2)" stroke="none"/>
      <path d="M331 350.0107 L336 338.0107 L331 341.0107 L326 338.0107 Z" clip-path="url(#clipPath2)" stroke="none"/>
      <text x="339.3203" xml:space="preserve" y="313.5352" clip-path="url(#clipPath2)" stroke="none">Policies</text>
      <path fill="none" d="M393.54 445.9901 L393.54 489.8966" clip-path="url(#clipPath2)"/>
      <path d="M393.54 497.8966 L398.54 485.8966 L393.54 488.8966 L388.54 485.8966 Z" clip-path="url(#clipPath2)" stroke="none"/>
      <text x="347.8867" xml:space="preserve" y="476.4951" clip-path="url(#clipPath2)" stroke="none">Rules</text>
      <path fill="none" d="M428.54 497.9122 L428.54 454.0126" clip-path="url(#clipPath2)"/>
      <path d="M428.54 446.0126 L423.54 458.0126 L428.54 455.0126 L433.54 458.0126 Z" clip-path="url(#clipPath2)" stroke="none"/>
      <text x="438.2724" xml:space="preserve" y="476.4951" clip-path="url(#clipPath2)" stroke="none">New Flows, Packets</text>
      <path fill="none" d="M559 422 L600.5 422 L604.875 421.375 L608 419.5 L609.875 416.375 L610.5 412 L610.5 234 L609.875 229.625 L608 226.5 L604.875 224.625 L600.5 224 L575 224" clip-path="url(#clipPath2)"/>
      <path d="M567 224 L579 229 L576 224 L579 219 Z" clip-path="url(#clipPath2)" stroke="none"/>
      <text x="553.1943" xml:space="preserve" y="317.4552" clip-path="url(#clipPath2)" stroke="none">BGP Info</text>
    </g>
  </g>
</svg>
