<?xml version="1.0" encoding="UTF-8"?>
<svg xmlns="http://www.w3.org/2000/svg" xmlns:xlink="http://www.w3.org/1999/xlink" fill-opacity="1" color-rendering="auto" color-interpolation="auto" stroke="black" text-rendering="auto" stroke-linecap="square" width="341" stroke-miterlimit="10" stroke-opacity="1" shape-rendering="auto" fill="black" stroke-dasharray="none" font-weight="normal" stroke-width="1" height="279" font-family="'Dialog'" font-style="normal" stroke-linejoin="miter" font-size="12" stroke-dashoffset="0" image-rendering="auto">
  <!--Generated by ySVG 2.5-->
  <defs id="genericDefs"/>
  <g>
    <defs id="defs1">
      <clipPath clipPathUnits="userSpaceOnUse" id="clipPath1">
        <path d="M0 0 L341 0 L341 279 L0 279 L0 0 Z"/>
      </clipPath>
      <clipPath clipPathUnits="userSpaceOnUse" id="clipPath2">
        <path d="M241 222 L582 222 L582 501 L241 501 L241 222 Z"/>
      </clipPath>
    </defs>
    <g fill="white" text-rendering="optimizeQuality" shape-rendering="geometricPrecision" transform="translate(-241,-222)" stroke="white">
      <rect x="241" width="341" height="279" y="222" clip-path="url(#clipPath2)" stroke="none"/>
    </g>
    <g text-rendering="optimizeQuality" stroke-miterlimit="1.45" shape-rendering="geometricPrecision" font-family="sans-serif" transform="matrix(1,0,0,1,-241,-222)" stroke-linecap="butt">
      <text x="262" xml:space="preserve" y="254.6016" clip-path="url(#clipPath2)" stroke="none">DNS Handler</text>
      <rect fill="none" x="256" width="149" height="104" y="237" clip-path="url(#clipPath2)"/>
      <text x="262" xml:space="preserve" y="367.6016" clip-path="url(#clipPath2)" stroke="none">Main Control Module</text>
      <rect fill="none" x="256" width="311" height="48" y="350" clip-path="url(#clipPath2)"/>
      <text x="424" xml:space="preserve" y="254.6016" clip-path="url(#clipPath2)" stroke="none">AS Handler</text>
      <rect fill="none" x="418" width="149" height="104" y="237" clip-path="url(#clipPath2)"/>
      <text x="289.0527" xml:space="preserve" y="283.5352" clip-path="url(#clipPath2)" stroke="none">Flow Classifier</text>
      <rect fill="none" x="262" width="138" height="30" y="264" clip-path="url(#clipPath2)"/>
      <text x="282.8682" xml:space="preserve" y="322.5352" clip-path="url(#clipPath2)" stroke="none">Metadata Engine</text>
      <rect fill="none" x="262" width="138" height="30" y="303" clip-path="url(#clipPath2)"/>
      <text x="262" xml:space="preserve" y="415.6016" clip-path="url(#clipPath2)" stroke="none">Pyretic</text>
      <rect fill="none" x="256" width="311" height="48" y="398" clip-path="url(#clipPath2)"/>
      <text x="392.8701" xml:space="preserve" y="475.5352" clip-path="url(#clipPath2)" stroke="none">Switch</text>
      <path fill="none" d="M287.1 456 L567 456 L535.9 486 L256 486 Z" fill-rule="evenodd" clip-path="url(#clipPath2)"/>
      <text x="457.4805" xml:space="preserve" y="426.5352" clip-path="url(#clipPath2)" stroke="none">BGP Engine</text>
      <rect fill="none" x="421" width="138" height="30" y="407" clip-path="url(#clipPath2)"/>
      <text x="460.1592" xml:space="preserve" y="303.5352" clip-path="url(#clipPath2)" stroke="none">BGP source</text>
      <rect fill="none" x="423.5" width="138" height="30" y="284" clip-path="url(#clipPath2)"/>
    </g>
  </g>
</svg>
